


<svg
   xmlns:dc="http://purl.org/dc/elements/1.1/"
   xmlns:cc="http://creativecommons.org/ns#"
   xmlns:rdf="http://www.w3.org/1999/02/22-rdf-syntax-ns#"
   xmlns:svg="http://www.w3.org/2000/svg"
   xmlns="http://www.w3.org/2000/svg"
   version="1.1"
   id="svg5398"
   viewBox="0 0 620.00001 620.00001"
   height="620"
   width="620">
  <title
     id="title6089">Round Border 1</title>
  <defs
     id="defs5400" />
  <metadata
     id="metadata5403">
    <rdf:RDF>
      <cc:Work
         rdf:about="">
        <dc:format>image/svg+xml</dc:format>
        <dc:type
           rdf:resource="http://purl.org/dc/dcmitype/StillImage" />
        <dc:title>Round Border 1</dc:title>
        <dc:creator>
          <cc:Agent>
            <dc:title>Arvin61r58</dc:title>
          </cc:Agent>
        </dc:creator>
        <dc:publisher>
          <cc:Agent>
            <dc:title>Openclipart.org</dc:title>
          </cc:Agent>
        </dc:publisher>
        <dc:identifier>https://openclipart.org/</dc:identifier>
        <dc:source>https://openclipart.org/user-detail/Arvin61r58</dc:source>
        <dc:description>round sinewave style border</dc:description>
        <dc:subject>
          <rdf:Bag>
            <rdf:li>frame</rdf:li>
            <rdf:li>border</rdf:li>
            <rdf:li>sinewave</rdf:li>
            <rdf:li>sine wave</rdf:li>
          </rdf:Bag>
        </dc:subject>
        <cc:license
           rdf:resource="http://creativecommons.org/publicdomain/zero/1.0/" />
      </cc:Work>
      <cc:License
         rdf:about="http://creativecommons.org/publicdomain/zero/1.0/">
        <cc:permits
           rdf:resource="http://creativecommons.org/ns#Reproduction" />
        <cc:permits
           rdf:resource="http://creativecommons.org/ns#Distribution" />
        <cc:permits
           rdf:resource="http://creativecommons.org/ns#DerivativeWorks" />
      </cc:License>
    </rdf:RDF>
  </metadata>
  <g
     transform="translate(-62.047243,-216.18109)"
     id="layer1">
    <g
       transform="matrix(0.9537727,0,0,0.95235753,-52.118761,31.288973)"
       id="g8291">
      <g
         transform="translate(48.687125,-24.343562)"
         id="g6085">
        <path
           style="font-style:normal;font-variant:normal;font-weight:normal;font-stretch:normal;font-size:medium;line-height:125%;font-family:'LOGO FONTS';-inkscape-font-specification:'LOGO FONTS';text-align:center;letter-spacing:0px;word-spacing:0px;text-anchor:middle;fill:#000000;fill-opacity:1;stroke:none;stroke-width:1px;stroke-linecap:butt;stroke-linejoin:miter;stroke-opacity:1"
           d="m 671.0801,609.3006 c 0.53446,-2.19022 1.58935,-3.97842 3.43778,-6.11875 0.56236,-0.67806 2.10004,-2.00682 4.7144,-4.64465 1.70765,-1.73407 2.62082,-2.8963 2.78627,-3.8949 0.24065,-1.45251 -0.58384,-4.09942 -2.62194,-8.37999 -2.0381,-4.28058 -2.98502,-7.11816 -2.7342,-9.31233 0.25082,-2.19419 1.83541,-4.76616 4.79086,-8.52231 2.95138,-3.71032 4.37099,-6.1005 4.46411,-7.56987 0.064,-1.01018 -0.54048,-2.34549 -1.81348,-4.41974 -2.03577,-3.34641 -3.21108,-4.95692 -3.51926,-5.51297 -1.31931,-2.50142 -1.96375,-4.87932 -1.93523,-7.13362 0,0 4.5913,0.0581 4.5913,0.0581 0.0651,1.97939 1.43558,4.66709 3.85359,8.62658 2.37301,3.95777 3.52486,6.78942 3.40555,8.67204 -0.14258,2.24995 -1.62136,5.09952 -4.5646,8.71818 -2.94731,3.6645 -4.52605,6.00539 -4.70894,7.60531 -0.18289,1.59992 0.8102,4.21279 2.86105,8.40224 2.05085,4.18944 2.8296,7.29474 2.4611,9.51889 -0.30833,1.86104 -1.97505,4.25724 -5.26102,7.49723 -3.33975,3.27538 -5.19005,5.59841 -5.74656,7.49908 0,0 -4.46078,-1.08852 -4.46078,-1.08852 0,0 0,0 0,0 m -22.58047,62.03447 c 1.00328,-2.01894 2.51132,-3.50056 4.78644,-5.1803 0.6981,-0.53728 2.57157,-1.4659 5.70474,-3.45997 2.04898,-1.3133 3.27725,-2.43319 3.68294,-3.36055 0.59009,-1.34888 0.34637,-4.16399 -0.5747,-8.81468 -0.92106,-4.65068 -1.3352,-7.29918 -0.60152,-9.38222 0.73368,-2.08305 2.91582,-4.22356 6.63587,-7.22433 3.70585,-2.957 5.68254,-4.95545 6.10233,-6.36665 0.2886,-0.97019 0.0496,-2.39654 -0.72554,-4.70353 -1.23303,-3.71786 -1.92963,-5.8839 -2.08966,-6.49917 -0.65498,-2.75113 -0.87489,-4.85285 -0.34043,-7.04307 0,0 4.46078,1.08853 4.46078,1.08853 -0.38149,1.94338 0.30442,4.86269 1.7724,9.26375 1.42451,4.3893 1.86138,7.39458 1.32352,9.20268 -0.64279,2.16088 -2.77879,4.59182 -6.45623,7.4613 -3.69164,2.91325 -5.81533,4.82766 -6.3503,6.34654 -0.53497,1.51888 -0.0452,4.06952 0.9107,8.63503 0.95587,4.5655 1.0431,7.81066 0.13952,9.87614 -0.75606,1.72827 -3.00744,3.75408 -6.9273,6.18922 -3.98013,2.45777 -6.38053,4.28301 -7.34161,6.01466 0,0 -4.11195,-2.04338 -4.11195,-2.04338 0,0 0,0 0,0 m -36.16296,54.87549 c 1.45566,-1.72156 3.23158,-2.84498 5.84207,-3.93266 0.80623,-0.35498 2.8014,-0.85339 6.3208,-2.03952 2.30378,-0.78468 3.65792,-1.4135 4.25438,-2.23131 0.86757,-1.18954 1.32986,-3.93144 1.43777,-8.67123 0.10792,-4.7398 0.55088,-7.71544 1.7651,-9.56016 1.21424,-1.84474 3.79119,-3.44373 8.12626,-5.45635 4.3107,-1.97358 6.65073,-3.47846 7.40001,-4.74586 0.51513,-0.87133 0.56189,-2.35852 0.3706,-4.78473 -0.29259,-3.90606 -0.63602,-5.90694 -0.65715,-6.54233 -0.0353,-2.8278 0.29983,-4.89239 1.30312,-6.91133 0,0 4.11195,2.04338 4.11195,2.04338 -0.79975,1.8118 -0.85854,4.77362 -0.39204,9.38954 0.42667,4.59491 0.17614,7.5184 -0.78388,9.14225 -1.14734,1.94068 -3.74449,3.82437 -8.00647,5.71989 -4.28635,1.93457 -6.74998,3.32603 -7.63536,4.67114 -0.88537,1.3451 -1.18353,4.13599 -1.23902,8.80016 -0.0555,4.66417 -0.7626,7.78984 -2.09108,9.61133 -1.11159,1.52411 -3.71157,2.90328 -8.09963,4.33164 -4.45199,1.43595 -7.17497,2.67826 -8.52115,4.13087 0,0 -3.50628,-2.96472 -3.50628,-2.96472 0,0 0,0 0,0 m -47.79203,45.16081 c 1.82149,-1.32848 3.78055,-2.04155 6.57419,-2.4812 0.8673,-0.1543 2.89148,-0.20792 6.59153,-0.52833 2.42399,-0.21775 3.85549,-0.54922 4.62844,-1.20278 1.12427,-0.95063 2.18812,-3.54606 3.41441,-8.12574 1.22629,-4.57969 2.32727,-7.40694 3.94375,-8.91172 1.61647,-1.50479 4.27402,-2.18405 8.93912,-3.22347 4.63294,-1.00651 7.3278,-1.89642 8.33099,-2.97407 0.68969,-0.74088 1.22907,-2.31309 1.61972,-4.71528 0.64384,-3.86372 0.74765,-5.93055 0.87834,-6.55272 0.6386,-2.75498 1.41588,-4.72393 2.87154,-6.44549 0,0 3.50627,2.96472 3.50627,2.96472 -1.20861,1.56892 -1.92974,4.47347 -2.57509,9.0678 -0.67904,4.56445 -1.65461,7.42886 -2.93994,8.80959 -1.53612,1.65014 -4.42198,2.82998 -9.01177,3.66145 -4.62271,0.86364 -7.31055,1.67251 -8.48922,2.76974 -1.17868,1.09724 -2.09476,3.77861 -3.25222,8.29723 -1.15746,4.51861 -2.54963,7.42858 -4.27118,8.88423 -1.4405,1.21801 -4.39331,2.00085 -8.98498,2.46119 -4.65573,0.45413 -7.41668,0.86162 -9.0682,1.95467 0,0 -2.7057,-3.70982 -2.7057,-3.70982 0,0 0,0 0,0 m -57.20513,33.08581 c 2.06548,-0.90359 4.1711,-1.07269 6.99383,-0.89978 0.88017,0.0363 2.91243,0.52468 6.59478,1.00774 2.41407,0.30881 4.07477,0.23892 4.98123,-0.21153 1.31849,-0.6552 2.9398,-2.97289 5.22069,-7.12919 2.28089,-4.1563 3.67105,-6.4667 5.57214,-7.59062 1.90109,-1.12393 4.95111,-1.37341 9.72963,-1.27764 4.7395,0.12014 7.53772,-0.15028 8.76754,-0.95976 0.84549,-0.55652 1.57755,-1.81998 2.47171,-4.08351 1.45337,-3.63739 2.31676,-5.74252 2.59094,-6.3161 1.27229,-2.52567 2.46113,-4.29693 4.28263,-5.62541 0,0 2.7057,3.70981 2.7057,3.70981 -1.54535,1.2386 -2.90143,3.93252 -4.61548,8.24372 -1.7397,4.27419 -3.33528,6.86974 -4.91098,7.90689 -1.88314,1.23951 -5.07852,1.73722 -9.73995,1.56836 -4.70048,-0.1445 -7.55776,-0.0316 -8.94397,0.78792 -1.38621,0.81953 -2.6526,3.10122 -4.8521,7.21458 -2.1995,4.11336 -4.21619,6.65962 -6.23513,7.6629 -1.68932,0.83949 -4.71541,0.94903 -9.28411,0.29929 -4.62944,-0.67108 -7.64012,-0.81136 -9.48879,-0.10093 0,0 -1.84031,-4.20674 -1.84031,-4.20674 0,0 0,0 0,0 m -62.84595,18.80642 c 2.22416,-0.3685 4.27901,-0.11233 6.97335,0.74688 0.84445,0.25083 2.66813,1.13201 6.12083,2.50018 2.26544,0.88931 3.6912,1.26075 4.67456,1.02079 1.43033,-0.34903 3.53941,-2.16128 6.67671,-5.7158 3.13729,-3.55452 5.37628,-5.55701 7.49308,-6.1867 2.1168,-0.62968 5.10413,-0.20334 9.71781,1.0446 4.56992,1.26215 7.32119,1.60587 8.70989,1.11675 0.95472,-0.33626 1.94034,-1.45043 3.3526,-3.4325 2.28544,-3.18113 3.30188,-4.9377 3.69377,-5.4383 1.78904,-2.19021 3.36785,-3.55874 5.43334,-4.46232 0,0 1.84032,4.20674 1.84032,4.20674 -1.77645,0.87549 -3.72051,3.10968 -6.32749,6.94739 -2.62401,3.79602 -4.68788,5.8832 -6.46714,6.50988 -2.12642,0.74896 -5.32097,0.5303 -9.80336,-0.76027 -4.52617,-1.27635 -7.2965,-1.78816 -8.84,-1.32901 -1.54349,0.45914 -3.55622,2.41525 -6.60469,5.94574 -3.04847,3.53048 -5.59611,5.48012 -7.78631,6.01458 -1.83264,0.4472 -4.82609,-0.20063 -9.13884,-1.8424 -4.36728,-1.67597 -7.00138,-2.59084 -8.96792,-2.35631 0,0 -0.75051,-4.52992 -0.75051,-4.52992 0,0 0,0 0,0 m -65.82267,3.81343 c 2.24997,0.14258 4.18987,0.87991 6.62131,2.32412 0.76621,0.43466 2.34035,1.73424 5.39655,3.84438 2.00717,1.37635 3.31018,2.09669 4.32231,2.08388 1.47219,-0.0186 3.93204,-1.26419 7.78686,-4.02417 3.85483,-2.75999 6.48152,-4.15676 8.68556,-4.29643 2.20406,-0.13967 5.01729,1.00382 9.23545,3.25115 4.17233,2.25141 6.77926,3.26441 8.24205,3.09719 1.00566,-0.11496 2.21885,-0.91067 4.03655,-2.52902 2.93567,-2.59319 4.65455,-4.08398 5.15765,-4.47264 2.27336,-1.68212 4.1142,-2.72339 6.33837,-3.09189 0,0 0.75051,4.52992 0.75051,4.52992 -1.93707,0.41226 -4.34811,2.20325 -7.81997,5.28067 -3.47809,3.03282 -6.06743,4.63068 -7.94163,4.84492 -2.23987,0.25605 -5.30928,-0.73424 -9.38994,-2.99379 -4.12651,-2.25547 -6.71141,-3.43392 -8.31852,-3.33208 -1.60712,0.10184 -4.00493,1.50458 -7.7678,4.26107 -3.76288,2.75649 -6.68275,4.03787 -8.93704,4.0664 -1.88626,0.0239 -4.5356,-1.23973 -8.30189,-3.90623 -3.81055,-2.71324 -6.41801,-4.13997 -8.38677,-4.35497 0,0 0.29039,-4.58248 0.29039,-4.58248 0,0 0,0 0,0 m -64.96377,-11.38256 c 2.1609,0.64281 3.87853,1.84858 5.92395,3.80152 0.64916,0.59548 1.88513,2.25969 4.38887,5.00273 1.64648,1.79226 2.96113,2.80937 3.94448,3.04933 1.43034,0.34903 4.16148,-0.39633 8.5833,-2.10651 4.42181,-1.71019 6.94983,-2.60636 9.12859,-2.24538 2.17878,0.36098 4.66016,2.13093 8.26247,5.27208 3.55674,3.13476 5.8657,4.72965 7.32849,4.89686 1.00566,0.11496 2.36476,-0.3667 4.50073,-1.53318 3.44508,-1.86394 5.456,-2.92844 6.03383,-3.19356 2.59427,-1.1258 4.61908,-1.70391 6.86905,-1.56133 0,0 -0.29039,4.58248 -0.29039,4.58248 -1.98015,-0.0352 -4.73017,1.14464 -8.80686,3.35933 -4.07271,2.16984 -6.95365,3.12246 -8.82785,2.90822 -2.23987,-0.25604 -5.00432,-1.9331 -8.46992,-5.05511 -3.51119,-3.12839 -5.7617,-4.88073 -7.35038,-5.14394 -1.58868,-0.26321 -4.23872,0.5381 -8.52593,2.37583 -4.28721,1.83773 -7.33345,2.43945 -9.52365,1.90499 -1.83264,-0.44721 -4.21919,-2.2936 -7.29118,-5.73716 -3.10464,-3.49903 -5.31616,-5.52571 -7.18679,-6.17612 0,0 1.30919,-4.40108 1.30919,-4.40108 0,0 0,0 0,0 m -60.28539,-26.00183 c 1.9407,1.14735 3.36347,2.66974 4.873,5.0612 0.48499,0.73539 1.32742,2.57938 3.08728,5.84984 1.16013,2.13945 2.02358,3.33064 2.93004,3.78109 1.31848,0.6552 4.11289,0.61283 8.80308,-0.0796 4.69018,-0.69241 7.70813,-0.79579 9.73146,0.0894 2.02334,0.88514 4.04354,3.11766 6.76126,7.04925 2.67512,3.91419 4.36839,5.88064 5.75709,6.36976 0.95472,0.33627 2.6115,0.20262 4.96971,-0.39897 3.7992,-0.95336 5.71638,-1.66453 6.33883,-1.79383 2.78025,-0.51762 4.87273,-0.56909 7.03363,0.0737 0,0 -1.30919,4.40108 -1.30919,4.40108 -1.92197,-0.47774 -4.85355,-10e-4 -9.32204,1.24646 -4.4546,1.20491 -7.45708,1.42912 -9.23635,0.80244 -2.12642,-0.74896 -4.33803,-2.96275 -6.92797,-6.84214 -2.63254,-3.89679 -4.43073,-6.05381 -5.90608,-6.69922 -1.47534,-0.64542 -4.28859,-0.43099 -8.8954,0.30035 -4.6068,0.73135 -7.82247,0.59656 -9.8414,-0.40672 -1.68933,-0.83948 -3.57139,-3.24992 -5.81292,-7.28362 -2.2612,-4.095 -3.71357,-6.48349 -5.3708,-7.56786 0,0 2.33677,-3.9526 2.33677,-3.9526 0,0 0,0 0,0 m -53.00656,-39.52101 c 1.65015,1.53614 2.63901,3.41784 3.60082,6.07729 0.31608,0.82225 0.67155,2.89421 1.68814,6.46627 0.67368,2.33865 1.3963,3.83552 2.16924,4.48908 1.12428,0.95062 3.8902,1.53191 8.61001,1.97983 4.71982,0.44792 7.38665,0.83067 9.17096,2.13204 1.78433,1.30138 3.21703,4.01171 5.01886,8.43854 1.76402,4.40063 3.11481,6.87072 4.34463,7.6802 0.84549,0.55652 2.29075,0.73585 4.72337,0.66195 3.91562,-0.10362 6.19058,-0.14314 6.82584,-0.11815 2.82292,0.16973 4.91399,0.56662 6.85469,1.71396 0,0 -2.33678,3.95259 -2.33678,3.95259 -1.74891,-0.92929 -4.75414,-1.11518 -9.39173,-0.98452 -4.61376,0.0925 -7.62422,-0.35327 -9.19992,-1.39043 -1.88314,-1.23951 -3.59959,-3.98434 -5.28798,-8.33253 -1.72622,-4.37442 -2.95677,-6.9613 -4.25783,-7.91021 -1.30107,-0.94892 -3.89024,-1.22814 -8.53839,-1.61834 -4.64815,-0.3902 -7.7789,-1.243 -9.50045,-2.69866 -1.44049,-1.218 -2.7341,-3.96415 -3.95133,-8.4154 -1.22176,-4.51547 -2.28405,-7.34872 -3.67078,-8.76267 0,0 3.12863,-3.36084 3.12863,-3.36084 0,0 0,0 0,0 m -42.27036,-50.35836 c 1.23952,1.88316 1.79726,3.91358 2.10254,6.72507 0.11256,0.8737 0.01,2.93942 0.15258,6.65057 0.10151,2.43162 0.44965,4.05692 1.04611,4.87473 0.86757,1.18954 3.25536,2.24872 7.77128,3.69226 4.51592,1.44354 7.23096,2.7241 8.6569,4.41052 1.42596,1.68643 2.218,4.62549 2.92129,9.35295 0.67274,4.69305 1.44063,7.37828 2.44382,8.45593 0.68969,0.74088 2.09177,1.2216 4.47261,1.72631 3.82863,0.8273 5.83677,1.08118 6.452,1.24138 2.72139,0.76925 4.60107,1.6925 6.25122,3.22864 0,0 -3.12863,3.36084 -3.12863,3.36084 -1.50947,-1.28209 -4.22333,-1.96226 -8.75978,-2.93438 -4.50423,-1.00359 -7.36293,-2.11343 -8.64826,-3.49417 -1.53612,-1.65014 -2.59385,-4.68815 -3.20552,-9.31236 -0.64221,-4.65864 -1.26676,-7.42947 -2.30652,-8.65915 -1.03975,-1.22968 -3.61803,-2.31869 -8.07623,-3.69056 -4.4582,-1.37187 -7.22552,-2.85102 -8.554,-4.6725 -1.11159,-1.52412 -1.76173,-4.46728 -1.89123,-9.08014 -0.11871,-4.67632 -0.52307,-7.64934 -1.53559,-9.35142 0,0 3.83541,-2.52452 3.83541,-2.52452 0,0 0,0 0,0 m -29.54812,-58.65322 c 0.74896,2.12644 0.86499,4.19782 0.4852,7.00023 -0.10085,0.87512 -0.63721,2.82385 -1.38871,6.46093 -0.48482,2.38496 -0.58585,3.84984 -0.18016,4.7772 0.59009,1.34888 2.76123,3.10919 6.80163,5.58961 4.0404,2.48042 6.42282,4.3389 7.40563,6.31663 0.98281,1.97775 1.10144,4.98806 0.65952,9.74707 -0.46338,4.71831 -0.41782,7.31462 0.33146,8.58201 0.51513,0.87133 1.87011,1.83404 4.06321,2.88923 3.52301,1.71209 5.45881,2.40315 6.01855,2.7046 2.46156,1.39227 4.11226,2.70254 5.35178,4.5857 0,0 -3.8354,2.52452 -3.8354,2.52452 -1.163,-1.60302 -3.7275,-3.12503 -7.95129,-5.04441 -4.18558,-1.94323 -6.63942,-3.69902 -7.59944,-5.32286 -1.14733,-1.94068 -1.43001,-5.05599 -0.92368,-9.69292 0.48485,-4.67763 0.48821,-7.48659 -0.22842,-8.92869 -0.71663,-1.4421 -3.01324,-3.08376 -7.01471,-5.48079 -4.00146,-2.39704 -6.38201,-4.56391 -7.28559,-6.62939 -0.75606,-1.72827 -0.65295,-4.78282 0.21955,-9.31426 0.89678,-4.59106 1.31229,-7.34303 0.73998,-9.239 0,0 4.33089,-1.52541 4.33089,-1.52541 0,0 0,0 0,0 m -15.16831,-64.2023 c 0.25604,2.23989 -0.16267,4.28528 -1.15619,6.93303 -0.29295,0.83078 -1.3255,2.61582 -2.86507,5.99557 -1.00179,2.21799 -1.42097,3.82643 -1.25553,4.82503 0.24065,1.4525 2.01047,3.66834 5.32001,7.06306 3.30954,3.39473 5.14985,5.36444 5.6734,7.50995 0.52356,2.14552 -0.11518,5.12238 -1.59057,9.66844 -1.48741,4.50164 -2.03129,7.24944 -1.6115,8.66065 0.2886,0.97019 1.28778,2.02859 3.19774,3.53695 3.06447,2.43964 4.83161,3.87288 5.30188,4.30068 2.05205,1.94597 3.40517,3.58249 4.15414,5.70893 0,0 -4.33089,1.52541 -4.33089,1.52541 -0.74223,-1.83612 -2.93205,-3.90176 -6.56666,-6.78515 -3.59178,-2.89729 -5.61944,-5.16954 -6.15729,-6.97764 -0.6428,-2.16088 -0.2019,-5.35827 1.30955,-9.77109 1.49942,-4.45724 2.21268,-7.21375 1.83092,-8.77819 -0.38176,-1.56443 -2.17154,-3.68537 -5.54551,-6.90621 -3.37397,-3.22084 -5.14664,-5.78112 -5.51513,-8.00527 -0.30834,-1.86104 0.43857,-4.77764 2.40024,-8.95461 1.99988,-4.22877 2.97972,-7.05221 2.8445,-9.02806 0,0 4.56196,-0.52148 4.56196,-0.52148 0,0 0,0 0,0 m 0,-65.92942 c -0.25605,2.2399 -1.14518,4.13541 -2.71051,6.49071 -0.47284,0.74326 -1.90314,2.24617 -4.16524,5.19166 -1.47618,1.93494 -2.2473,3.4074 -2.31131,4.41759 -0.0931,1.46936 1.10693,4.02411 3.56644,8.07726 2.45951,4.05314 3.79782,6.78165 3.76988,8.98993 -0.028,2.2083 -1.30946,4.55589 -3.76722,8.655 -2.45951,4.05314 -3.65779,6.60782 -3.56467,8.07718 0.064,1.01019 0.83513,2.48265 2.3113,4.41759 2.36363,3.12347 3.79803,4.59971 4.16082,5.12177 1.56532,2.35531 2.45446,4.25082 2.71051,6.49072 0,0 -4.56196,0.52148 -4.56196,0.52148 -0.31421,-1.95538 -1.92342,-4.45857 -4.82182,-8.08122 -2.85354,-3.62663 -4.262027,-6.29732 -4.381329,-8.17994 -0.14258,-2.24995 1.056429,-5.26792 3.519429,-9.22911 2.46126,-4.00717 3.7813,-6.24138 3.80168,-7.85159 0.0204,-1.61021 -1.34126,-4.11103 -3.80426,-8.07222 -2.463,-3.9612 -3.663858,-6.97729 -3.521277,-9.22724 0.119303,-1.88264 1.526027,-4.55346 4.379567,-8.18009 2.90246,-3.66848 4.51384,-6.19557 4.82801,-8.15096 0,0 4.56196,0.52148 4.56196,0.52148 0,0 0,0 0,0 m 15.16831,-64.2023 c -0.74896,2.12644 -2.10209,3.76296 -4.15413,5.70893 -0.62698,0.6188 -2.40153,2.07488 -5.32351,4.36728 -1.90996,1.50835 -2.90748,2.56727 -3.19609,3.53747 -0.41978,1.41119 0.12578,4.15947 1.61319,8.66112 1.4874,4.50165 2.13241,7.45535 1.60885,9.60086 -0.52355,2.14552 -2.36838,4.13879 -5.68657,7.5787 -3.30954,3.39472 -5.07763,5.61087 -5.31828,7.06338 -0.16545,0.9986 0.25374,2.60703 1.25552,4.82502 1.59834,3.57605 2.64088,5.33604 2.87652,5.9265 0.99352,2.64775 1.41223,4.69314 1.15619,6.93303 0,0 -4.56196,-0.52148 -4.56196,-0.52148 0.13518,-1.97584 -0.84795,-4.77552 -2.8542,-8.95872 -1.96167,-4.17697 -2.71032,-7.09383 -2.40199,-8.95487 0.3685,-2.22414 2.13814,-4.78701 5.5121,-8.00784 3.38376,-3.2658 5.17823,-5.40828 5.55999,-6.97271 0.38176,-1.56444 -0.33726,-4.29967 -1.8487,-8.71249 -1.51144,-4.41283 -1.95453,-7.60879 -1.31173,-9.76968 0.53785,-1.80811 2.56385,-4.08087 6.15563,-6.97817 3.64882,-2.92714 5.84608,-5.0156 6.58828,-6.85174 0,0 4.33089,1.52541 4.33089,1.52541 0,0 0,0 0,0 m 29.54812,-58.65322 c -1.23953,1.88316 -2.89022,3.19343 -5.35179,4.5857 -0.75795,0.44891 -2.70236,1.16538 -6.05418,2.76487 -2.19309,1.05519 -3.54808,2.01791 -4.06321,2.88924 -0.74928,1.26738 -0.79188,3.86533 -0.32849,8.58365 0.46338,4.71833 0.35594,7.70742 -0.62686,9.68516 -0.98281,1.97774 -3.37539,3.85796 -7.43525,6.38006 -4.04039,2.48041 -6.20998,4.24144 -6.80007,5.59033 -0.40569,0.92736 -0.30307,2.39289 0.18174,4.77786 0.76526,3.84151 1.31677,5.76803 1.4152,6.39612 0.37979,2.8024 0.26376,4.87378 -0.48521,7.00022 0,0 -4.33089,-1.52541 -4.33089,-1.52541 0.57227,-1.89598 0.14772,-4.62571 -0.76646,-9.17419 -0.8725,-4.53144 -0.97719,-7.58665 -0.22113,-9.31492 0.90358,-2.06547 3.2834,-4.23483 7.28486,-6.63185 4.02093,-2.43874 6.32687,-4.10037 7.0435,-5.54247 0.71663,-1.4421 0.70298,-4.23156 0.19666,-8.86849 -0.50633,-4.63694 -0.22753,-7.75216 0.91981,-9.69285 0.96002,-1.62385 3.41242,-3.38052 7.59801,-5.32375 4.24814,-1.9584 6.82538,-3.50075 7.98835,-5.1038 0,0 3.83541,2.52452 3.83541,2.52452 0,0 0,0 0,0 m 42.27036,-50.35836 c -1.65016,1.53613 -3.52983,2.45939 -6.25122,3.22863 -0.84275,0.25649 -2.8653,0.53294 -6.50092,1.29148 -2.38083,0.50471 -3.78172,0.98659 -4.47141,1.72747 -1.00318,1.07764 -1.76983,3.76399 -2.44258,8.45704 -0.67275,4.69305 -1.44887,7.61417 -2.87482,9.30059 -1.42595,1.68643 -4.15603,2.98567 -8.70081,4.46504 -4.51591,1.44353 -6.90105,2.50476 -7.76863,3.6943 -0.59646,0.81781 -0.94459,2.44311 -1.0461,4.87473 -0.1787,3.91292 -0.0558,5.96068 -0.11133,6.594 -0.30528,2.8115 -0.86301,4.84191 -2.10254,6.72507 0,0 -3.8354,-2.52452 -3.8354,-2.52452 1.01248,-1.70209 1.40319,-4.65536 1.49569,-9.29388 0.12951,-4.61286 0.77828,-7.55699 1.88987,-9.0811 1.32847,-1.82148 4.09437,-3.3042 8.55256,-4.67606 4.48706,-1.40771 7.07917,-2.51389 8.11892,-3.74357 1.03976,-1.22968 1.64967,-3.98402 2.26135,-8.60824 0.61167,-4.62422 1.66685,-7.66188 3.20298,-9.31202 1.28534,-1.38075 4.14283,-2.49174 8.64706,-3.49533 4.56859,-1.00504 7.29925,-1.70235 8.8087,-2.98447 0,0 3.12863,3.36084 3.12863,3.36084 0,0 0,0 0,0 m 53.00656,-39.52101 c -1.9407,1.14734 -4.03177,1.54423 -6.85469,1.71396 -0.8781,0.0704 -3.17342,0.0436 -6.88523,-0.0811 -2.43262,-0.0739 -3.87698,0.10685 -4.72247,0.66337 -1.22981,0.80948 -2.57965,3.28095 -4.34367,7.68158 -1.76402,4.40063 -3.17701,7.0973 -4.96133,8.39866 -1.78432,1.30138 -4.46983,1.69917 -9.22547,2.17595 -4.71981,0.44792 -7.48468,1.0305 -8.60896,1.98114 -0.77294,0.65356 -1.36753,1.97593 -1.98519,4.32999 -1.00893,3.78483 -1.61495,5.97794 -1.81872,6.58015 -0.96181,2.65944 -1.95068,4.54115 -3.60083,6.07728 0,0 -3.12862,-3.36084 -3.12862,-3.36084 1.38669,-1.41397 2.43106,-4.23126 3.61841,-8.71619 1.21723,-4.45125 2.50974,-7.19867 3.95023,-8.41667 1.72154,-1.45564 4.85276,-2.31097 9.5009,-2.70117 4.68399,-0.41907 7.29033,-0.71212 8.59139,-1.66103 1.30107,-0.94892 2.51351,-3.52323 4.2019,-7.87144 1.6884,-4.3482 3.40228,-7.0933 5.28544,-8.33281 1.57571,-1.03716 4.58526,-1.48431 9.19901,-1.39185 4.67662,0.1063 7.70223,-0.0923 9.45113,-1.0216 0,0 2.33677,3.9526 2.33677,3.9526 0,0 0,0 0,0 m 60.28539,-26.00183 c -2.1609,0.6428 -4.25338,0.59133 -7.03363,0.0737 -0.86908,-0.14391 -2.80918,-0.841 -6.40487,-1.77057 -2.35821,-0.60159 -4.015,-0.73523 -4.96972,-0.39896 -1.38869,0.48912 -3.08072,2.45878 -5.75586,6.37297 -2.67513,3.9142 -4.67313,6.13765 -6.69646,7.02279 -2.02334,0.88514 -5.06302,0.79191 -9.79489,0.11896 -4.69018,-0.69242 -7.48385,-0.73325 -8.80234,-0.078 -0.90646,0.45045 -1.76913,1.64315 -2.92925,3.7826 -1.88062,3.436 -2.69724,5.27265 -3.02537,5.81718 -1.50952,2.39145 -2.93229,3.91385 -4.87299,5.06119 0,0 -2.33678,-3.95259 -2.33678,-3.95259 1.6572,-1.0844 3.08838,-3.46166 5.30889,-7.53519 2.24153,-4.03371 4.12281,-6.44566 5.81213,-7.28514 2.01892,-1.00327 5.23563,-1.14043 9.84243,-0.40908 4.6485,0.71187 7.48172,0.91698 8.95707,0.27156 1.47534,-0.64541 3.25313,-2.79409 5.84307,-6.67348 2.58995,-3.87939 4.79851,-6.09566 6.92495,-6.84462 1.77927,-0.62669 4.7812,-0.40411 9.23579,0.8008 4.51226,1.23353 7.46667,1.70261 9.38864,1.22484 0,0 1.30919,4.40108 1.30919,4.40108 0,0 0,0 0,0 m 64.96377,-11.38256 c -2.24997,0.14258 -4.27478,-0.43553 -6.86905,-1.56133 -0.81495,-0.33448 -2.84979,-1.39686 -6.10357,-3.18737 -2.13597,-1.16648 -3.4949,-1.64638 -4.50056,-1.53142 -1.46278,0.16721 -3.77152,1.76385 -7.32826,4.89861 -3.55675,3.13477 -6.01438,4.9014 -8.19314,5.26238 -2.17878,0.36098 -4.73022,-0.5301 -9.19699,-2.2305 -4.42181,-1.71018 -7.15257,-2.45383 -8.58291,-2.1048 -0.98336,0.23997 -2.29799,1.25707 -3.94447,3.04933 -2.6612,2.87417 -3.87024,4.53768 -4.32086,4.98614 -2.04541,1.95293 -3.76305,3.15871 -5.92395,3.80151 0,0 -1.30919,-4.40107 -1.30919,-4.40107 1.8706,-0.65045 4.05897,-2.67082 7.1192,-6.15784 3.07199,-3.44355 5.45811,-5.29164 7.29074,-5.73884 2.19019,-0.53446 5.23761,0.0634 9.52481,1.90119 4.33241,1.82908 7.0041,2.62624 8.59278,2.36303 1.58868,-0.26322 3.81736,-2.01249 7.28298,-5.13451 3.46561,-3.12201 6.22789,-4.80055 8.46777,-5.05659 1.87421,-0.21424 4.75497,0.73662 8.82768,2.90646 4.12252,2.21063 6.89644,3.38839 8.8766,3.35314 0,0 0.29039,4.58248 0.29039,4.58248 0,0 0,0 0,0 m 65.82267,3.81343 c -2.22416,-0.3685 -4.06501,-1.40977 -6.33837,-3.09189 -0.71846,-0.50973 -2.46111,-2.00384 -5.22699,-4.48234 -1.81769,-1.61835 -3.03111,-2.41231 -4.03678,-2.52727 -1.46277,-0.16721 -4.06989,0.84755 -8.24223,3.09895 -4.17233,2.2514 -6.96167,3.39701 -9.16571,3.25734 -2.20406,-0.13967 -4.85472,-1.53736 -8.75551,-4.29909 -3.85482,-2.75998 -6.10813,-4.04014 -7.58032,-4.02151 -1.01214,0.0128 -2.52173,0.70842 -4.5289,2.08477 -3.2391,2.20251 -4.7868,3.50756 -5.32654,3.84349 -2.43145,1.44421 -4.37134,2.18154 -6.62131,2.32412 0,0 -0.29039,-4.58248 -0.29039,-4.58248 1.96875,-0.21504 4.55223,-1.64082 8.31681,-4.35232 3.76629,-2.66649 6.50598,-3.88501 8.39223,-3.90888 2.25428,-0.0285 5.08577,1.30733 8.84863,4.06382 3.80885,2.75823 6.2287,4.16181 7.83581,4.26365 1.60712,0.10184 4.17005,-1.07856 8.25072,-3.3381 4.08068,-2.25954 7.14831,-3.25176 9.38819,-2.99572 1.87421,0.21424 4.46377,1.81035 7.94187,4.84317 3.51741,3.0838 5.95221,4.87815 7.8893,5.29037 0,0 -0.75051,4.52992 -0.75051,4.52992 0,0 0,0 0,0 m 62.84595,18.80644 c -2.06548,-0.90359 -3.64431,-2.27212 -5.43335,-4.46234 -0.57079,-0.67098 -1.6138,-2.43163 -3.75921,-5.46318 -1.41226,-1.98207 -2.39848,-3.09461 -3.3532,-3.43088 -1.38869,-0.48912 -4.1405,-0.14375 -8.71043,1.1184 -4.56992,1.26214 -7.53444,1.69589 -9.65124,1.06621 -2.1168,-0.62969 -4.37895,-2.63845 -7.56065,-6.20499 -3.13728,-3.55451 -5.24681,-5.36507 -6.67715,-5.71411 -0.98336,-0.23996 -2.4095,0.13319 -4.67494,1.0225 -3.65169,1.41701 -5.45086,2.3094 -6.05242,2.51507 -2.69434,0.85921 -4.74919,1.11538 -6.97335,0.74688 0,0 0.75051,-4.52991 0.75051,-4.52991 1.96653,0.23448 4.57718,-0.68545 8.89951,-2.37121 4.31275,-1.64177 7.30659,-2.29131 9.13922,-1.84411 2.19019,0.53446 4.74017,2.48292 7.78863,6.01341 3.09289,3.5425 5.12689,5.50437 6.67039,5.96351 1.5435,0.45915 4.29286,-0.0595 8.77526,-1.35003 4.4824,-1.29056 7.67563,-1.51147 9.80206,-0.76251 1.77928,0.62668 3.84436,2.71064 6.46837,6.50667 2.64956,3.85511 4.61584,6.09842 6.39231,6.97387 0,0 -1.84032,4.20675 -1.84032,4.20675 0,0 0,0 0,0 m 57.20513,33.08579 c -1.8215,-1.32849 -3.01034,-3.09974 -4.28264,-5.62541 -0.41194,-0.77866 -1.29506,-2.89747 -2.64847,-6.35599 -0.89417,-2.26353 -1.62717,-3.5256 -2.47266,-4.08212 -1.22981,-0.80948 -4.02894,-1.07847 -8.76844,-0.95834 -4.7395,0.12013 -7.76917,-0.11664 -9.67026,-1.24057 -1.90109,-1.12393 -3.31247,-3.44552 -5.63405,-7.62329 -2.28088,-4.15629 -3.90297,-6.47247 -5.22147,-7.12768 -0.90646,-0.45045 -2.56714,-0.52033 -4.98121,-0.21152 -3.88725,0.4818 -5.89848,0.98688 -6.53209,1.0389 -2.82273,0.17291 -4.92834,0.004 -6.99383,-0.89977 0,0 1.84032,-4.20675 1.84032,-4.20675 1.84867,0.71039 4.83758,0.55999 9.42534,-0.13055 4.5687,-0.64975 7.59553,-0.54174 9.28485,0.29774 2.01892,1.00328 4.03813,3.54894 6.23763,7.6623 2.24019,4.13483 3.52608,6.42681 4.91229,7.24634 1.38621,0.81953 4.22479,0.92074 8.88623,0.75189 4.66144,-0.16886 7.85606,0.32638 9.73921,1.5659 1.57571,1.03716 3.17223,3.63131 4.91193,7.9055 1.75186,4.33741 3.12763,7.04503 4.67302,8.2836 0,0 -2.7057,3.70982 -2.7057,3.70982 0,0 0,0 0,0 m 47.79203,45.16081 c -1.45566,-1.72156 -2.23294,-3.69051 -2.87153,-6.44549 -0.21602,-0.85403 -0.3417,-2.93632 -0.92605,-6.60397 -0.39064,-2.40219 -0.93004,-3.9744 -1.61973,-4.71528 -1.00318,-1.07765 -3.69924,-1.9664 -8.33219,-2.97291 -4.63295,-1.00651 -7.27374,-1.66861 -8.89021,-3.17339 -1.61648,-1.50478 -2.73542,-4.34795 -3.99611,-8.95818 -1.22628,-4.57968 -2.29124,-7.17385 -3.41552,-8.12448 -0.77294,-0.65356 -2.2055,-0.98374 -4.62949,-1.20149 -3.89988,-0.36572 -5.90707,-0.39862 -6.537,-0.48441 -2.79364,-0.43965 -4.7527,-1.15273 -6.5742,-2.48121 0,0 2.70571,-3.70981 2.70571,-3.70981 1.65153,1.09301 4.39377,1.48548 9.01367,1.91075 4.59166,0.46034 7.54554,1.24189 8.98603,2.45989 1.72154,1.45565 3.11629,4.36567 4.27374,8.88427 1.19188,4.54915 2.12445,7.24516 3.30313,8.3424 1.17867,1.09723 3.85073,1.8907 8.44052,2.72219 4.5898,0.83148 7.47664,2.00761 9.01276,3.65775 1.28535,1.38075 2.26215,4.24403 2.94119,8.80847 0.67589,4.62875 1.41291,7.55128 2.62156,9.12018 0,0 -3.50628,2.96472 -3.50628,2.96472 0,0 0,0 0,0 m 36.16296,54.87549 c -1.00328,-2.01895 -1.33846,-4.08353 -1.30311,-6.91133 -0.007,-0.88089 0.31919,-2.90198 0.62298,-6.60344 0.1913,-2.42621 0.14306,-3.91257 -0.37207,-4.7839 -0.74928,-1.26739 -3.09074,-2.77138 -7.40145,-4.74498 -4.31071,-1.97359 -6.87496,-3.55223 -8.08919,-5.39696 -1.21423,-1.84473 -1.67085,-4.84008 -1.80498,-9.61769 -0.10791,-4.73979 -0.57157,-7.48072 -1.43915,-8.67027 -0.59646,-0.81781 -1.95193,-1.44562 -4.25571,-2.23029 -3.70285,-1.27741 -5.68641,-1.75166 -6.2782,-1.98396 -2.61049,-1.08768 -4.38641,-2.21111 -5.84207,-3.93266 0,0 3.50628,-2.96472 3.50628,-2.96472 1.3462,1.45257 4.0541,2.67622 8.47723,4.07634 4.38806,1.42836 6.9907,2.80549 8.10228,4.32959 1.32848,1.82148 2.03807,4.94781 2.09356,9.61197 0.0817,4.70198 0.39243,7.51099 1.2778,8.85609 0.88538,1.34511 3.33733,2.71787 7.59932,4.6134 4.26198,1.89554 6.85954,3.77667 8.00687,5.71736 0.96003,1.62386 1.21352,4.5457 0.78685,9.14061 -0.44503,4.65661 -0.37507,7.63966 0.42471,9.45146 0,0 -4.11195,2.04338 -4.11195,2.04338 0,0 0,0 0,0 m 22.58047,62.03447 c -0.53446,-2.19021 -0.31455,-4.29193 0.34043,-7.04306 0.18687,-0.86086 0.8772,-3.05008 2.07137,-6.56675 0.77515,-2.307 1.01247,-3.73287 0.72386,-4.70307 -0.41978,-1.41119 -2.39812,-3.40911 -6.10397,-6.36612 -3.70585,-2.95701 -5.88058,-5.07471 -6.61426,-7.15775 -0.73368,-2.08305 -0.32862,-4.75375 0.57505,-9.44703 0.92106,-4.65068 1.1632,-7.46512 0.57311,-8.81401 -0.40569,-0.92736 -1.63396,-2.04724 -3.68294,-3.36055 -3.28944,-2.12659 -5.1575,-3.0289 -5.67668,-3.39582 -2.27512,-1.67974 -3.78315,-3.16136 -4.78643,-5.18031 0,0 4.11195,-2.04337 4.11195,-2.04337 0.96111,1.73162 3.35131,3.53514 7.31198,5.95122 3.91986,2.43514 6.1728,4.46025 6.92886,6.18851 0.90358,2.06547 0.81867,5.31178 -0.1372,9.87728 -0.93846,4.6081 -1.41993,7.17915 -0.88496,8.69803 0.53497,1.51888 2.65185,3.41232 6.32929,6.2818 3.67743,2.86949 5.81448,5.29804 6.45728,7.45893 0.53786,1.80811 0.10266,4.81291 -1.32185,9.20221 -1.45596,4.44547 -2.13564,7.38796 -1.75411,9.33134 0,0 -4.46078,1.08852 -4.46078,1.08852 0,0 0,0 0,0 m 7.56931,65.50914 c -0.0285,-2.2543 0.61592,-4.6322 1.93523,-7.13362 0.39532,-0.78723 1.56384,-2.42386 3.5166,-5.58293 1.273,-2.07426 1.87573,-3.40948 1.81171,-4.41966 -0.0931,-1.46936 -1.51449,-3.8594 -4.46587,-7.56973 -2.95139,-3.71032 -4.53386,-6.2584 -4.78467,-8.45258 -0.25083,-2.19418 0.69277,-5.05551 2.7245,-9.38165 2.0381,-4.28057 2.86085,-6.92723 2.62019,-8.37974 -0.16544,-0.9986 -1.08034,-2.16051 -2.78799,-3.89458 -2.73744,-2.80165 -4.2758,-4.10346 -4.70123,-4.57589 -1.84843,-2.14033 -2.90332,-3.92853 -3.43778,-6.11875 0,0 4.46078,-1.08852 4.46078,-1.08852 0.55655,1.90065 2.4017,4.20025 5.73167,7.43066 3.28597,3.24 4.95613,5.63553 5.26447,7.49656 0.3685,2.22415 -0.40824,5.33113 -2.45909,9.52057 -2.04448,4.23501 -3.03451,6.86972 -2.85162,8.46964 0.18289,1.59992 1.75968,3.91885 4.70292,7.53752 2.94324,3.61867 4.42362,6.46614 4.5662,8.71609 0.1193,1.88264 -1.03078,4.7142 -3.40379,8.67197 -2.41626,4.00546 -3.78591,6.71714 -3.85093,8.69654 0,0 -4.5913,0.0581 -4.5913,0.0581 0,0 0,0 0,0"
           id="path6071" />
        <path
           style="font-style:normal;font-variant:normal;font-weight:normal;font-stretch:normal;font-size:medium;line-height:125%;font-family:'LOGO FONTS';-inkscape-font-specification:'LOGO FONTS';text-align:center;letter-spacing:0px;word-spacing:0px;text-anchor:middle;fill:#000000;fill-opacity:1;stroke:none;stroke-width:1px;stroke-linecap:butt;stroke-linejoin:miter;stroke-opacity:1"
           d="m 695.67039,615.30117 c 0.84019,-3.6329 0.84582,-8.11091 -0.14453,-12.51365 -1.27858,-5.29132 -2.32833,-9.33345 -3.03756,-11.93979 -1.09315,-4.42135 -1.50731,-8.46142 -1.07869,-12.211 0.42862,-3.74955 1.78543,-7.58824 3.84752,-11.64916 2.5154,-4.80673 4.41317,-8.5381 5.67629,-10.94724 1.95696,-4.06637 2.93362,-8.20094 3.02579,-11.9286 0,0 6.61843,0.0838 6.61843,0.0838 -0.0564,4.45569 -1.07215,9.19072 -3.07925,13.39169 -2.38779,4.73254 -4.35853,8.74565 -5.73784,11.04254 -2.14397,3.78105 -3.39782,7.46096 -3.7748,10.75875 -0.37698,3.29782 -0.005,7.16107 1.23034,11.32836 0,0 3.05445,12.04289 3.05445,12.04289 1.00891,4.54518 0.88651,9.78158 -0.16986,14.1106 0,0 -6.43029,-1.56914 -6.43029,-1.56914 0,0 0,0 0,0 m -24.50341,67.29811 c 1.61896,-3.359 2.57496,-7.50229 2.69348,-12.01349 0.0568,-5.44331 -0.0505,-9.7249 -0.16387,-12.42364 -0.0851,-4.55369 0.5472,-8.5331 1.80096,-12.09275 1.25376,-3.55964 3.39958,-7.01453 6.40445,-10.43712 3.62899,-4.03266 6.32643,-7.3367 8.09789,-9.40101 2.81943,-3.52362 4.74288,-7.31852 5.6705,-10.9301 0,0 6.43029,1.56914 6.43029,1.56914 -1.05638,4.32902 -3.15176,8.6978 -6.05026,12.34133 -3.38875,4.07615 -6.31066,7.50548 -8.16835,9.43608 -2.93465,3.20636 -5.03877,6.48981 -6.14147,9.62057 -1.1027,3.13077 -1.70077,7.10667 -1.52964,11.4499 0,0 0.31306,12.19146 0.31306,12.19146 -0.0217,4.65577 -1.44658,9.64469 -3.4296,13.63518 0,0 -5.92744,-2.94555 -5.92744,-2.94555 0,0 0,0 0,0 m -39.50176,59.95447 c 2.37304,-2.87622 4.40603,-6.8329 5.49423,-11.21249 1.22885,-5.30311 2.11556,-9.37327 2.65291,-12.0204 1.0098,-4.44114 2.46753,-8.23102 4.54249,-11.38342 2.07495,-3.15238 4.99362,-5.98109 8.67297,-8.66545 4.42157,-3.14352 7.77784,-5.61727 9.99784,-7.18922 3.5912,-2.73285 6.44177,-6.16453 8.14132,-9.48349 0,0 5.92744,2.94555 5.92744,2.94555 -1.98301,3.9905 -5.22682,8.06937 -8.92386,10.89932 -4.27772,3.13046 -7.79957,5.81861 -10.06882,7.24295 -3.62265,2.40196 -6.39314,5.11691 -8.21809,7.88948 -1.82497,2.77259 -3.24463,6.56027 -4.12047,10.81772 0,0 -2.56208,11.94534 -2.56208,11.94534 -1.13547,4.51524 -3.60439,9.08509 -6.48153,12.4878 0,0 -5.05435,-4.27369 -5.05435,-4.27369 0,0 0,0 0,0 m -52.20525,49.26817 c 2.98592,-2.23343 5.83352,-5.68067 7.92633,-9.67881 2.44782,-4.86222 4.31077,-8.66126 5.40021,-11.13293 1.93355,-4.12369 4.2612,-7.45194 7.02355,-10.02342 2.76233,-2.57147 6.19239,-4.70601 10.40359,-6.44073 5.04117,-2.00465 8.84774,-3.64781 11.37766,-4.64729 4.13767,-1.80134 7.63213,-4.52688 10.07391,-7.34499 0,0 5.05435,4.27369 5.05435,4.27369 -2.87715,3.40271 -6.90337,6.65968 -11.16692,8.5302 -4.89901,2.02445 -8.79557,3.6371 -11.31684,4.54344 -4.05236,1.57206 -7.48627,3.66873 -9.91579,5.93038 -2.42953,2.26167 -4.61139,5.47757 -6.37489,9.45036 0,0 -5.39738,11.20309 -5.39738,11.20309 -2.17081,4.11877 -5.58724,8.05899 -9.18747,10.68476 0,0 -3.90031,-5.34775 -3.90031,-5.34775 0,0 0,0 0,0 m -61.9756,35.82518 c 3.39791,-1.5356 6.79071,-4.10051 9.77794,-7.48304 3.53834,-4.13679 6.20251,-7.49173 7.84883,-9.63314 2.85932,-3.54509 5.8955,-6.19854 9.14423,-8.11919 3.2487,-1.92064 7.10937,-3.19448 11.61171,-3.88176 5.37263,-0.75284 9.54339,-1.56199 12.2283,-1.99868 4.42673,-0.87707 8.32563,-2.54864 11.36459,-4.70937 0,0 3.90031,5.34775 3.90031,5.34775 -3.60023,2.62579 -7.99499,4.6222 -12.55946,5.54 -5.21813,0.93261 -9.63102,1.693 -12.29526,1.976 -4.30948,0.5669 -8.0244,1.73455 -10.88169,3.42379 -2.85731,1.68924 -5.86058,4.35899 -8.51883,7.79799 0,0 -7.58565,9.54831 -7.58565,9.54831 -3.00603,3.55534 -7.29969,6.46947 -11.38218,8.25543 0,0 -2.65284,-6.06409 -2.65284,-6.06409 0,0 0,0 0,0 m -68.85355,20.58792 c 3.67102,-0.65382 7.78804,-2.43075 11.44796,-5.07081 4.36387,-3.25414 7.66597,-5.81826 9.78447,-7.49395 3.63697,-2.74149 7.18273,-4.73774 10.80008,-5.81379 3.61732,-1.07605 7.66489,-1.3819 12.20887,-1.07277 5.40769,0.43457 9.56868,0.68964 12.27981,0.91143 4.50774,0.21322 8.89836,-0.59488 12.33236,-2.04803 0,0 2.65284,6.06409 2.65284,6.06409 -4.08249,1.78596 -9.19371,2.83841 -13.84494,2.63161 -5.28927,-0.34963 -9.52267,-0.67305 -12.18463,-0.97671 -4.32954,-0.38465 -8.3756,-0.1118 -11.5571,0.8346 -3.18151,0.94641 -6.58235,2.82067 -9.93042,5.59256 0,0 -9.8666,7.56267 -9.8666,7.56267 -3.78362,2.71307 -8.64471,4.68071 -13.04082,5.40905 0,0 -1.08188,-6.52995 -1.08188,-6.52995 0,0 0,0 0,0 m -71.56073,4.10317 c 3.72389,0.19089 8.13753,-0.55712 12.29772,-2.30574 4.9843,-2.18852 8.77957,-3.90744 11.22049,-5.06412 4.16009,-1.85392 8.06651,-2.90714 11.83295,-3.14582 3.76642,-0.23868 7.78302,0.35514 12.10915,1.7792 5.13192,1.75934 9.2281,2.90379 11.82201,3.72297 4.34742,1.21037 8.59267,1.47538 12.27841,0.91034 0,0 1.08188,6.52995 1.08188,6.52995 -4.39612,0.72835 -9.23825,0.53051 -13.727,-0.70553 -5.07904,-1.51717 -9.3833,-2.82137 -11.8873,-3.77436 -4.09967,-1.44416 -7.94592,-2.06678 -11.25854,-1.85686 -3.31265,0.20993 -7.21171,1.29456 -11.14447,3.1456 0,0 -11.11497,5.09347 -11.11497,5.09347 -4.29716,1.79192 -9.48183,2.55842 -13.92894,2.27661 0,0 0.41861,-6.60571 0.41861,-6.60571 0,0 0,0 0,0 m -70.57995,-12.38253 c 3.58659,1.01995 8.02295,1.37249 12.46972,0.60362 5.34866,-1.01228 9.42379,-1.79722 12.06241,-2.37486 4.4706,-0.87009 8.50367,-0.96155 12.22691,-0.34468 3.72322,0.61686 7.49918,2.12273 11.39243,4.48619 4.60261,2.8719 8.3304,4.95077 10.67258,6.3341 3.96221,2.16008 8.03768,3.39744 11.7559,3.67816 0,0 -0.41861,6.60571 -0.41861,6.60571 -4.44712,-0.28182 -9.12003,-1.58855 -13.21413,-3.80553 -4.60574,-2.62405 -8.50019,-4.90549 -10.7246,-6.39889 -3.66809,-2.33194 -7.27082,-3.82725 -10.54545,-4.36979 -3.27465,-0.54255 -7.30452,-0.41852 -11.55298,0.49991 0,0 -11.96408,2.42732 -11.96408,2.42732 -4.58997,0.78027 -9.77624,0.27348 -14.04731,-0.99704 0,0 1.88721,-6.34422 1.88721,-6.34422 0,0 0,0 0,0 m -65.95002,-28.47413 c 3.23248,1.85877 7.52068,3.12773 12.02077,3.46561 5.43411,0.32156 9.65232,0.549 12.35337,0.56777 4.5524,0.13775 8.52467,0.96568 11.98229,2.47827 3.4576,1.51259 6.7661,3.84404 10.03623,7.01415 3.84866,3.82359 6.87056,6.67966 8.79754,8.59961 3.30438,3.07346 7.19889,5.2425 10.75982,6.34872 0,0 -1.88721,6.34422 -1.88721,6.34422 -4.27109,-1.27052 -8.87624,-3.71937 -12.29433,-6.88059 -3.81308,-3.68226 -6.84614,-6.63728 -8.68271,-8.58798 -3.05763,-3.08932 -6.34118,-5.44369 -9.38219,-6.77403 -3.04103,-1.33036 -6.85595,-2.07036 -11.20235,-2.11194 0,0 -12.42254,-0.5391 -12.42254,-0.5391 -4.64175,-0.36171 -9.61136,-1.95923 -13.44719,-4.22698 0,0 3.3685,-5.69773 3.3685,-5.69773 0,0 0,0 0,0 M 183.16845,768.6985 c 2.75972,2.50756 6.44717,4.61026 10.73758,6.00932 5.20148,1.60549 9.31793,2.73934 11.93632,3.40274 4.38773,1.22114 8.01538,2.97379 11.06456,5.19766 3.04916,2.22387 5.74149,5.27258 8.15331,9.13608 2.81621,4.63691 5.19984,8.1613 6.66275,10.45463 2.55623,3.71899 5.63047,6.6464 8.81715,8.58265 0,0 -3.3685,5.69773 -3.3685,5.69773 -3.83585,-2.26776 -7.40529,-5.52271 -10.0534,-9.3521 -2.92023,-4.42391 -5.35484,-8.18997 -6.66841,-10.52509 -2.22498,-3.73396 -4.76143,-6.69022 -7.44321,-8.64614 -2.68181,-1.95594 -6.30825,-3.66993 -10.51892,-4.74848 0,0 -11.76245,-3.18597 -11.76245,-3.18597 -4.45583,-1.34995 -8.80518,-4.14211 -12.06674,-7.17832 0,0 4.50996,-4.84471 4.50996,-4.84471 0,0 0,0 0,0 m -46.16652,-54.96862 c 2.08754,3.08967 5.2761,6.18279 9.16953,8.46451 4.73952,2.67766 8.37682,4.69082 10.76412,5.95447 3.97462,2.22392 7.16661,4.71895 9.60338,7.60083 2.43675,2.88187 4.29634,6.50646 5.82833,10.79557 1.76205,5.131 3.16916,9.06184 4.04689,11.63653 1.60205,4.21884 4.05586,7.94327 6.75427,10.51671 0,0 -4.50996,4.84471 -4.50996,4.84471 -3.26158,-3.03622 -6.2207,-7.31694 -7.88584,-11.66482 -1.78861,-4.98994 -3.33819,-9.14904 -4.06197,-11.72865 -1.27836,-4.15437 -3.08291,-7.5917 -5.22608,-10.12635 -2.14318,-2.53467 -5.34285,-4.99158 -9.17914,-7.03508 0,0 -10.7178,-5.84613 -10.7178,-5.84613 -4.01018,-2.3654 -7.66458,-6.05106 -10.11453,-9.77317 0,0 5.5288,-3.63913 5.5288,-3.63913 0,0 0,0 0,0 m -32.27951,-64.1609 c 1.2811,3.50181 3.76506,7.23206 6.99737,10.3812 3.95872,3.7365 7.05164,6.61826 9.11041,8.36682 3.40177,3.02843 5.91757,6.21268 7.59706,9.59238 1.67949,3.37969 2.72459,7.2885 3.19364,11.81878 0.4925,5.40272 0.97552,9.52858 1.2173,12.23801 0.55531,4.47848 2.15136,8.62454 4.16373,11.76371 0,0 -5.5288,3.63913 -5.5288,3.63913 -2.44995,-3.72211 -4.40646,-8.53156 -4.99244,-13.15036 -0.55358,-5.27183 -0.98172,-9.47756 -1.13573,-12.15236 -0.35812,-4.33183 -1.36801,-8.23887 -2.84514,-11.21135 -1.47714,-2.97251 -3.92852,-5.98794 -7.2341,-8.81037 0,0 -9.18286,-8.39079 -9.18286,-8.39079 -3.32559,-3.25839 -6.123145,-7.68295 -7.603491,-11.88591 0,0 6.243051,-2.19889 6.243051,-2.19889 0,0 0,0 0,0 M 88.280321,579.83245 c 0.468161,3.69928 1.916073,7.91905 4.369292,11.70674 3.031231,4.52156 5.365318,7.95931 6.932935,10.15899 2.556112,3.76957 4.247302,7.43771 5.141992,11.10412 0.89468,3.66639 1.00572,7.72703 0.3598,12.23549 -0.83518,5.36044 -1.24946,9.59001 -1.60478,12.2869 -0.43542,4.49171 0.0466,8.71252 1.24286,12.24424 0,0 -6.243051,2.19889 -6.243051,2.19889 -1.480348,-4.20296 -2.131738,-8.99698 -1.695646,-13.63233 0.610224,-5.26557 1.144016,-9.72275 1.644629,-12.35478 0.705293,-4.289 0.65279,-8.18463 -0.134097,-11.40928 -0.786892,-3.22467 -2.506534,-6.87633 -5.019858,-10.42262 0,0 -6.942824,-10.04871 -6.942824,-10.04871 -2.519939,-3.91491 -4.121312,-8.88872 -4.62739,-13.31593 0,0 6.576138,-0.75172 6.576138,-0.75172 0,0 0,0 0,0 m 0,-71.67882 c -0.378745,3.70951 0.03792,8.14487 1.573749,12.38822 1.933455,5.08868 3.407348,8.96352 4.439009,11.45985 1.641,4.24858 2.490158,8.2313 2.442406,12.00499 -0.04775,3.77368 -0.801481,7.72714 -2.442481,11.97572 -2.016599,5.03639 -3.425949,8.93535 -4.439059,11.45984 -1.535861,4.24337 -1.95237,8.68068 -1.573624,12.3902 0,0 -6.576138,0.75172 -6.576138,0.75172 -0.506079,-4.42721 -0.110087,-9.63483 1.462056,-14.01718 1.897144,-4.94968 3.395397,-8.90138 4.47379,-11.35399 1.649623,-4.02139 2.435024,-7.97105 2.477023,-11.29006 0.042,-3.31902 -0.827399,-7.12848 -2.477022,-11.14987 0,0 -4.473666,-11.35595 -4.473666,-11.35595 -1.572143,-4.38234 -1.968259,-9.58801 -1.462181,-14.01521 0,0 6.576138,0.75172 6.576138,0.75172 0,0 0,0 0,0 m 16.442099,-69.73648 c -1.19621,3.53171 -1.67764,7.75066 -1.24225,12.24236 0.61093,5.40922 1.15943,9.62272 1.60469,12.28688 0.64592,4.50845 0.53483,8.56908 -0.35986,12.23549 -0.89468,3.6664 -2.58597,7.33452 -5.142081,11.10408 -3.099564,4.45248 -5.376656,7.928 -6.932983,10.15898 -2.453249,3.78769 -3.901453,8.0094 -4.369615,11.70869 0,0 -6.576138,-0.75172 -6.576138,-0.75172 0.506079,-4.42722 2.107773,-9.40297 4.627712,-13.31788 2.964512,-4.39434 5.339209,-7.90023 6.942504,-10.04677 2.513324,-3.54629 4.233431,-7.19986 5.020319,-10.42451 0.786891,-3.22467 0.838929,-7.11839 0.133637,-11.40739 0,0 -1.644023,-12.35665 -1.644023,-12.35665 -0.436092,-4.63535 0.214692,-9.42749 1.695038,-13.63045 0,0 6.24305,2.19889 6.24305,2.19889 0,0 0,0 0,0 m 32.27951,-64.1609 c -2.01237,3.13916 -3.60739,7.28355 -4.16272,11.76201 -0.58424,5.41217 -1.00184,9.54549 -1.21735,12.23799 -0.46905,4.53028 -1.51424,8.43905 -3.19373,11.81875 -1.67948,3.37968 -4.19532,6.56392 -7.59709,9.59234 -4.09598,3.55738 -7.09805,6.53661 -9.1105,8.36678 -3.23234,3.14914 -5.71702,6.88121 -6.99812,10.38303 0,0 -6.24305,-2.19889 -6.24305,-2.19889 1.480348,-4.20297 4.27865,-8.62935 7.60424,-11.88774 3.86544,-3.62726 7.10177,-6.70065 9.18211,-8.38896 3.30558,-2.82243 5.75784,-5.83963 7.23497,-8.81211 1.47714,-2.97251 2.48615,-6.87779 2.84428,-11.20962 0,0 1.13672,-12.15405 1.13672,-12.15405 0.58599,-4.6188 2.5415,-9.42655 4.99144,-13.14866 0,0 5.5288,3.63913 5.5288,3.63913 0,0 0,0 0,0 m 46.16652,-54.96862 c -2.6984,2.57343 -5.15082,6.29648 -6.75288,10.51529 -1.85169,5.11901 -3.19788,9.07231 -4.04694,11.63651 -1.53199,4.28911 -3.39165,7.91363 -5.82841,10.79552 -2.43676,2.88187 -5.62882,5.37684 -9.60344,7.60075 -4.76654,2.59079 -8.37141,4.66052 -10.76416,5.95444 -3.89345,2.28171 -7.08314,5.37643 -9.17069,8.46611 0,0 -5.5288,-3.63913 -5.5288,-3.63913 2.44996,-3.72212 6.10551,-7.40936 10.1157,-9.77476 4.62276,-2.59398 8.32125,-4.64439 10.71663,-5.84455 3.83629,-2.0435 7.03724,-4.5019 9.1804,-7.03656 2.14318,-2.53466 3.94647,-5.9705 5.22482,-10.12487 0,0 4.06335,-11.73005 4.06335,-11.73005 1.66514,-4.34788 4.62289,-8.6272 7.88446,-11.66341 0,0 4.50996,4.84471 4.50996,4.84471 0,0 0,0 0,0 m 57.37167,-42.78308 c -3.18667,1.93624 -6.25923,4.86264 -8.81547,8.5816 -3.0121,4.53434 -5.28622,8.13055 -6.66281,10.45455 -2.41182,3.8635 -5.10418,6.91218 -8.15336,9.13606 -3.04916,2.22386 -6.67686,3.97643 -11.0646,5.19757 -5.24393,1.39039 -9.32275,2.6487 -11.93637,3.40266 -4.29043,1.39905 -7.97933,3.50307 -10.73906,6.01064 0,0 -4.50996,-4.84471 -4.50996,-4.84471 3.26157,-3.03621 7.61242,-5.82964 12.06824,-7.17959 5.10508,-1.42719 9.14973,-2.58491 11.76096,-3.18471 4.21066,-1.07855 7.83869,-2.79369 10.52048,-4.74962 2.6818,-1.95594 5.21666,-4.91103 7.44164,-8.64499 0,0 6.67008,-10.52614 6.67008,-10.52614 2.64811,-3.82938 6.21589,-7.0833 10.05173,-9.35105 0,0 3.3685,5.69773 3.3685,5.69773 0,0 0,0 0,0 m 65.95002,-28.47412 c -3.56092,1.10621 -7.45357,3.27462 -10.75795,6.34805 -3.92678,3.77005 -6.90249,6.67481 -8.79757,8.59957 -3.27013,3.17011 -6.57867,5.50147 -10.03629,7.01406 -3.4576,1.51259 -7.42988,2.34047 -11.98229,2.47822 -5.42425,0.0976 -9.63545,0.45735 -12.3534,0.56769 -4.50011,0.33786 -8.79003,1.60776 -12.02252,3.46653 0,0 -3.3685,-5.69773 -3.3685,-5.69773 3.83585,-2.26775 8.80718,-3.86619 13.44893,-4.2279 5.29244,-0.29773 9.7419,-0.57947 12.4208,-0.53819 4.34641,-0.0416 8.16312,-0.78237 11.20414,-2.11271 3.04103,-1.33035 6.32278,-3.68394 9.38041,-6.77325 0,0 8.68456,-8.58864 8.68456,-8.58864 3.41809,-3.16122 8.02139,-5.60941 12.29247,-6.87993 0,0 1.88721,6.34423 1.88721,6.34423 0,0 0,0 0,0 m 70.57994,-12.38254 c -3.7182,0.28072 -7.79172,1.51793 -11.75392,3.67799 -4.73764,2.68097 -8.39693,4.8789 -10.6726,6.334 -3.89325,2.36345 -7.66922,3.86928 -11.39246,4.48614 -3.72322,0.61686 -7.75631,0.5253 -12.22691,-0.34478 -5.31209,-1.10162 -9.3995,-1.81963 -12.06241,-2.37491 -4.44678,-0.76889 -8.88504,-0.41586 -12.47164,0.6041 0,0 -1.88721,-6.34423 -1.88721,-6.34423 4.27108,-1.27052 9.45925,-1.77777 14.04922,-0.99751 5.20546,1.00088 9.3584,1.79645 11.96217,2.42778 4.24846,0.91843 8.28027,1.04214 11.5549,0.4996 3.27465,-0.54254 6.87544,-2.03753 10.54354,-4.36947 0,0 10.72655,-6.39907 10.72655,-6.39907 4.0941,-2.21697 8.76506,-3.52353 13.21217,-3.80535 0,0 0.4186,6.60571 0.4186,6.60571 0,0 0,0 0,0 m 71.56074,4.10317 c -3.68573,-0.56504 -7.92905,-0.29973 -12.27645,0.91062 -5.22039,1.54286 -9.2767,2.81877 -11.82201,3.72287 -4.32613,1.42406 -8.34272,2.01783 -12.10916,1.77914 -3.76642,-0.23868 -7.67284,-1.292 -11.83293,-3.14592 -4.92787,-2.2689 -8.7505,-3.92459 -11.22048,-5.06416 -4.1602,-1.74866 -8.5758,-2.49661 -12.29971,-2.30572 0,0 -0.4186,-6.60571 -0.4186,-6.60571 4.44712,-0.28181 9.63375,0.48467 13.93091,2.27659 4.84733,2.14522 8.71813,3.89236 11.11301,5.09349 3.93276,1.85104 7.83378,2.9358 11.14641,3.14572 3.31264,0.20992 7.15693,-0.41282 11.2566,-1.85697 0,0 11.88924,-3.7741 11.88924,-3.7741 4.48874,-1.23603 9.32894,-1.43415 13.72505,-0.7058 0,0 -1.08188,6.52995 -1.08188,6.52995 0,0 0,0 0,0 m 68.85354,20.58793 c -3.43399,-1.45315 -7.82278,-2.26052 -12.33049,-2.04733 -5.43278,0.34323 -9.58993,0.6653 -12.27981,0.91137 -4.54399,0.30913 -8.59152,0.003 -12.20886,-1.07286 -3.61733,-1.07605 -7.16306,-3.0724 -10.80004,-5.81388 -4.29185,-3.31842 -7.63431,-5.82776 -9.78445,-7.494 -3.65992,-2.64009 -7.77887,-4.41741 -11.44989,-5.07123 0,0 1.08188,-6.52995 1.08188,-6.52995 4.39611,0.72835 9.25912,2.69639 13.04275,5.40947 4.24016,3.18113 7.84426,5.80267 9.86468,7.56225 3.34807,2.7719 6.75079,4.64672 9.93228,5.59312 3.18152,0.9464 7.2257,1.21869 11.55524,0.83404 0,0 12.18647,-0.976 12.18647,-0.976 4.65122,-0.2068 9.7606,0.84495 13.84308,2.6309 0,0 -2.65284,6.0641 -2.65284,6.0641 0,0 0,0 0,0 m 61.97561,35.82517 c -3.03895,-2.16072 -6.93626,-3.83116 -11.36296,-4.70824 -5.35589,-0.97332 -9.54931,-1.65348 -12.22826,-1.99876 -4.50234,-0.68728 -8.36298,-1.96117 -11.6117,-3.88181 -3.24871,-1.92064 -6.28485,-4.57418 -9.14417,-8.11927 -3.35387,-4.26422 -6.11927,-7.53365 -7.84878,-9.63323 -2.98722,-3.38255 -6.38182,-5.94826 -9.77974,-7.48386 0,0 2.65284,-6.0641 2.65284,-6.0641 4.08249,1.78596 8.37792,4.70097 11.38395,8.25631 3.33437,4.12076 5.99881,7.38741 7.5839,9.54744 2.65825,3.43899 5.66321,6.10975 8.5205,7.79898 2.8573,1.68924 6.57054,2.8559 10.88002,3.4228 0,0 12.29687,1.97712 12.29687,1.97712 4.56447,0.91779 8.95761,2.91309 12.55784,5.53887 0,0 -3.90031,5.34775 -3.90031,5.34775 0,0 0,0 0,0 m 52.20525,49.26817 c -2.44177,-2.8181 -5.93492,-5.54219 -10.07256,-7.34354 -5.02491,-2.09362 -8.85682,-3.677 -11.37763,-4.64733 -4.21121,-1.73472 -7.6412,-3.86932 -10.40355,-6.44081 -2.76233,-2.57147 -5.08995,-5.89975 -7.0235,-10.02344 -2.24277,-4.93984 -4.22219,-8.68108 -5.40014,-11.133 -2.0928,-3.99817 -4.94195,-7.44661 -7.92787,-9.68005 0,0 3.90031,-5.34775 3.90031,-5.34775 3.60024,2.62578 7.0182,6.56722 9.18901,10.686 2.36982,4.74158 4.37031,8.72667 5.39585,11.20186 1.7635,3.97279 3.94679,7.19003 6.37631,9.45168 2.42953,2.26166 5.86201,4.357 9.91437,5.92906 0,0 11.31817,4.54488 11.31817,4.54488 4.26355,1.87052 8.28843,5.12605 11.16558,8.52875 0,0 -5.05435,4.27369 -5.05435,4.27369 0,0 0,0 0,0 m 39.50176,59.95447 c -1.69955,-3.31895 -4.54919,-6.74891 -8.14035,-9.48176 -4.38359,-3.22756 -7.77921,-5.64852 -9.99781,-7.18925 -3.67935,-2.68436 -6.59793,-5.51312 -8.67289,-8.66552 -2.07495,-3.15239 -3.53261,-6.94232 -4.54241,-11.38346 -1.13787,-5.30445 -2.08802,-9.35951 -2.65286,-12.02041 -1.08818,-4.37962 -3.12239,-8.33785 -5.49544,-11.21407 0,0 5.05435,-4.27369 5.05435,-4.27369 2.87715,3.40271 5.34726,7.97412 6.48273,12.48937 1.18158,5.16745 2.08672,9.30684 2.56089,11.94377 0.87584,4.25746 2.29658,8.04677 4.12153,10.81935 1.82496,2.77259 4.59438,5.4859 8.21703,7.88786 0,0 10.06978,7.24466 10.06978,7.24466 3.69703,2.82995 6.93988,6.90711 8.92289,10.8976 0,0 -5.92744,2.94555 -5.92744,2.94555 0,0 0,0 0,0 m 24.50341,67.29811 c -0.92762,-3.61157 -2.85058,-7.40457 -5.66999,-10.92819 -3.46784,-4.19605 -6.2689,-7.41329 -8.09779,-9.40104 -3.00487,-3.4226 -5.15065,-6.8775 -6.40441,-10.43716 -1.25376,-3.55963 -1.88601,-7.53907 -1.80086,-12.09277 0.16793,-5.42252 0.14192,-9.70356 0.16396,-12.42367 -0.1185,-4.51122 -1.07536,-8.65627 -2.69432,-12.01528 0,0 5.92744,-2.94555 5.92744,-2.94555 1.98302,3.99049 3.40872,8.98122 3.43039,13.63699 -0.0897,5.30005 -0.14155,9.51598 -0.31385,12.18965 -0.17113,4.34324 0.42759,8.32098 1.53029,11.45174 1.1027,3.13078 3.20617,6.41238 6.14082,9.61874 0,0 8.16886,9.43797 8.16886,9.43797 2.8985,3.64353 4.99337,8.01042 6.04975,12.33943 0,0 -6.43029,1.56914 -6.43029,1.56914 0,0 0,0 0,0 m 8.28882,71.18944 c -0.0922,-3.72765 -1.06878,-7.86026 -3.02571,-11.92662 -2.43797,-4.86715 -4.39751,-8.568 -5.67625,-10.94725 -2.06208,-4.06093 -3.4188,-7.89962 -3.84742,-11.64919 -0.42861,-3.74956 -0.0144,-7.78964 1.0788,-12.21099 1.3666,-5.25017 2.3498,-9.308 3.0376,-11.9398 0.99038,-4.40275 0.98435,-8.88268 0.14416,-12.51559 0,0 6.43029,-1.56914 6.43029,-1.56914 1.05638,4.32903 1.17914,9.56735 0.17023,14.11254 -1.26002,5.14887 -2.22933,9.49208 -3.05482,12.04096 -1.23554,4.16729 -1.60709,8.03249 -1.23012,11.33029 0.37698,3.29781 1.63061,6.97577 3.77458,10.75682 0,0 5.73791,11.0445 5.73791,11.0445 2.00711,4.20097 3.0228,8.93404 3.07918,13.38972 0,0 -6.61843,0.0838 -6.61843,0.0838 0,0 0,0 0,0"
           id="path6073" />
      </g>
    </g>
  </g>
</svg>
